<svg width="19" height="32" viewBox="0 0 19 32" fill="none" xmlns="http://www.w3.org/2000/svg">
<path d="M18.3273 0.873671C18.3273 0.644667 18.2395 0.425043 18.0833 0.263113C17.9271 0.101183 17.7152 0.010211 17.4943 0.010211H13.329C11.2315 -0.0980827 9.17798 0.658482 7.61703 2.1146C6.05609 3.57072 5.11463 5.60801 4.99836 7.78135V12.444H0.83306C0.612119 12.444 0.400227 12.535 0.243998 12.6969C0.0877687 12.8589 0 13.0785 0 13.3075V17.7975C0 18.0265 0.0877687 18.2461 0.243998 18.408C0.400227 18.57 0.612119 18.6609 0.83306 18.6609H4.99836V30.2313C4.99836 30.4603 5.08613 30.6799 5.24236 30.8419C5.39858 31.0038 5.61048 31.0948 5.83142 31.0948H10.8298C11.0507 31.0948 11.2626 31.0038 11.4188 30.8419C11.5751 30.6799 11.6628 30.4603 11.6628 30.2313V18.6609H16.0281C16.2133 18.6637 16.3942 18.6024 16.542 18.4866C16.6899 18.3709 16.7963 18.2074 16.8445 18.022L18.0441 13.532C18.0772 13.4044 18.0817 13.2706 18.0571 13.141C18.0325 13.0114 17.9796 12.8893 17.9023 12.7842C17.8251 12.6791 17.7256 12.5938 17.6115 12.5348C17.4974 12.4758 17.3718 12.4448 17.2443 12.444H11.6628V7.78135C11.7043 7.3539 11.898 6.9578 12.206 6.67041C12.5141 6.38302 12.9145 6.22497 13.329 6.22712H17.4943C17.7152 6.22712 17.9271 6.13615 18.0833 5.97422C18.2395 5.81229 18.3273 5.59267 18.3273 5.36366V0.873671Z" fill="#F6F6F6"/>
</svg>
