<svg width="19" height="30" viewBox="0 0 19 30" fill="none" xmlns="http://www.w3.org/2000/svg">
<path d="M18.3273 0.842911C18.3273 0.62197 18.2395 0.410078 18.0833 0.253849C17.9271 0.0976202 17.7152 0.00985146 17.4943 0.00985146H13.329C11.2315 -0.0946294 9.17798 0.635298 7.61703 2.04015C6.05609 3.445 5.11463 5.41057 4.99836 7.50739V12.0059H0.83306C0.612119 12.0059 0.400227 12.0937 0.243998 12.2499C0.0877687 12.4061 0 12.618 0 12.839V17.1709C0 17.3918 0.0877687 17.6037 0.243998 17.7599C0.400227 17.9162 0.612119 18.0039 0.83306 18.0039H4.99836V29.1669C4.99836 29.3879 5.08613 29.5998 5.24236 29.756C5.39858 29.9122 5.61048 30 5.83142 30H10.8298C11.0507 30 11.2626 29.9122 11.4188 29.756C11.5751 29.5998 11.6628 29.3879 11.6628 29.1669V18.0039H16.0281C16.2133 18.0066 16.3942 17.9474 16.542 17.8358C16.6899 17.7241 16.7963 17.5664 16.8445 17.3875L18.0441 13.0556C18.0772 12.9325 18.0817 12.8034 18.0571 12.6783C18.0325 12.5533 17.9796 12.4355 17.9023 12.3341C17.8251 12.2327 17.7256 12.1504 17.6115 12.0935C17.4974 12.0366 17.3718 12.0066 17.2443 12.0059H11.6628V7.50739C11.7043 7.09499 11.898 6.71284 12.206 6.43556C12.5141 6.15829 12.9145 6.0058 13.329 6.00788H17.4943C17.7152 6.00788 17.9271 5.92011 18.0833 5.76388C18.2395 5.60765 18.3273 5.39576 18.3273 5.17482V0.842911Z" fill="#F6F6F6"/>
</svg>
