<svg width="50" height="50" viewBox="0 0 50 50" fill="none" xmlns="http://www.w3.org/2000/svg">
<path d="M50 33.5938C50 38.3398 47.3648 42.1875 42.1875 42.1875H7.8125C2.63516 42.1875 0 38.3398 0 33.5938V16.4062C0 11.6602 2.63516 7.8125 7.8125 7.8125H42.1875C47.3648 7.8125 50 11.6602 50 16.4062V33.5938Z" fill="#128807"/>
<path d="M44.6407 25.6172L25.1172 39.3359L5.59302 25.6172L25.1172 11.8984L44.6407 25.6172Z" fill="#F9CB38"/>
<path fill-rule="evenodd" clip-rule="evenodd" d="M32.8204 28.0062C31.9313 31.0273 29.1493 33.3273 25.9993 33.6398C21.7907 34.0609 18.1086 31.3859 17.2133 27.2508C16.9484 26.0356 16.9822 24.7743 17.3118 23.575C17.4344 23.4422 17.6039 23.4101 17.7727 23.3867C19.0036 23.2158 20.248 23.1617 21.4891 23.225C22.8133 23.3 24.1266 23.4836 25.4032 23.8445C26.7133 24.2156 27.9821 24.7 29.1797 25.3437C30.081 25.8226 30.9419 26.3739 31.7539 26.9922C32.0289 27.2055 32.3094 27.4148 32.5735 27.6422C32.6914 27.7437 32.7836 27.8531 32.8196 28.0062" fill="#002776"/>
<path fill-rule="evenodd" clip-rule="evenodd" d="M17.7532 22.3523C18.7618 20.0984 20.4625 18.5977 22.8133 17.893C27.5477 16.4734 32.4047 19.6023 33.1086 24.482C33.218 25.2359 33.2227 25.9922 33.1071 26.7477C32.9875 26.7922 32.8985 26.7289 32.8165 26.6609C31.9585 25.9598 31.043 25.3321 30.0797 24.7844C29.3381 24.3635 28.5674 23.9959 27.7735 23.6844C27.6329 23.6289 27.4563 23.6 27.4079 23.4117C27.4586 23.3211 27.5227 23.2422 27.5993 23.1688C27.6266 23.1406 27.6665 23.1133 27.6297 23.0664C27.6172 23.0516 27.5915 23.0516 27.5696 23.0539C27.511 23.0602 27.5188 23.1008 27.5211 23.1438C27.5258 23.2836 27.4446 23.3734 27.3375 23.4453C27.1477 23.4883 26.9657 23.4313 26.8118 23.3492C26.3711 23.118 25.8836 23.0391 25.4172 22.9102C24.6899 22.7125 23.943 22.6008 23.1977 22.4844C22.6029 22.3894 22.0041 22.3211 21.4032 22.2797C20.8563 22.2414 20.2993 22.2469 19.7485 22.2844C19.1477 22.3266 18.5454 22.3688 17.9477 22.4406C17.9102 22.4461 17.872 22.4407 17.8375 22.425C17.803 22.4094 17.7737 22.3842 17.7532 22.3523Z" fill="#002776"/>
<path fill-rule="evenodd" clip-rule="evenodd" d="M27.4142 23.3633C27.411 23.4586 27.4962 23.4461 27.5478 23.4664C29.5652 24.2512 31.4414 25.3595 33.1024 26.7477C33.0545 27.1763 32.9597 27.5983 32.8196 28.0062C31.8423 27.1953 30.8415 26.4227 29.7345 25.7914C26.2353 23.7984 22.4884 23.0086 18.4829 23.432C18.0923 23.4719 17.7017 23.525 17.311 23.5727C17.4118 23.15 17.5399 22.7352 17.7501 22.3508C20.6743 21.9562 23.5478 22.1805 26.3673 23.0531C26.7173 23.1617 27.0509 23.3367 27.4243 23.3695L27.4142 23.3609" fill="#FEFEFE"/>
<path fill-rule="evenodd" clip-rule="evenodd" d="M31.0548 28.3984C30.8196 28.3734 31.0751 28.6617 30.8376 28.6555C30.6306 28.6524 30.6196 28.4867 30.5181 28.3945C30.5962 28.3133 30.7345 28.2969 30.7782 28.1703C30.8079 28.3039 30.9337 28.332 31.0548 28.3984Z" fill="#D9DFEA"/>
<path fill-rule="evenodd" clip-rule="evenodd" d="M22.1829 29.8437C21.9618 29.8695 22.1469 30.1102 21.9618 30.1141C21.775 30.118 21.6789 29.9797 21.6414 29.8367C21.6282 29.7961 21.8079 29.7055 21.8961 29.6383C21.9071 29.7797 22.0539 29.7734 22.1829 29.8437Z" fill="#E9ECF3"/>
<path fill-rule="evenodd" clip-rule="evenodd" d="M25.1095 29.4086C24.8024 29.607 25.0501 29.1586 24.8696 29.2024C24.9282 29.1086 25.0938 29.1305 25.1048 28.9867C25.1829 29.068 25.2493 29.1617 25.3735 29.1789C25.1962 29.1547 25.3892 29.5484 25.1095 29.4086Z" fill="#EDEFF5"/>
<path fill-rule="evenodd" clip-rule="evenodd" d="M18.7656 24.1445C18.6922 24.2844 18.6367 24.4406 18.4141 24.3469C18.3 24.2992 18.4219 24.143 18.2852 24.1281L18.5383 23.9055C18.5555 23.9422 18.5758 23.9774 18.593 24.0141C18.6133 24.107 18.7984 23.9836 18.7656 24.1445Z" fill="#F0F2F6"/>
<path fill-rule="evenodd" clip-rule="evenodd" d="M19.4742 27.5391C19.3578 27.5758 19.4414 27.882 19.1914 27.7485C19.1664 27.736 19.057 27.7961 19.0774 27.761C19.143 27.6328 18.9961 27.5703 19.0188 27.468C19.1555 27.5274 19.1477 27.2774 19.2875 27.3445C19.2977 27.3524 19.2977 27.3836 19.3047 27.4039C19.3195 27.5008 19.5086 27.3797 19.4742 27.5391Z" fill="#ECEFF4"/>
<path fill-rule="evenodd" clip-rule="evenodd" d="M18.2453 28.4438C18.0055 28.5274 18.1844 28.2375 18.0469 28.2399C18.1109 28.1859 18.1828 28.0852 18.2469 28.0891C18.3234 28.093 18.3938 28.1875 18.4641 28.2414C18.3594 28.2766 18.4695 28.5602 18.2453 28.4438Z" fill="#D9DFEA"/>
<path fill-rule="evenodd" clip-rule="evenodd" d="M27.5157 31.2086C27.2618 31.3242 27.5087 30.9828 27.3391 31.0274C27.3219 30.8969 27.5337 30.9758 27.5071 30.8383L27.736 31.0219C27.643 31.0641 27.736 31.3297 27.5157 31.2086Z" fill="#D8DEEA"/>
<path fill-rule="evenodd" clip-rule="evenodd" d="M29.1407 31.0203C28.9305 31.1078 29.0594 30.825 28.9462 30.7969C29.0227 30.7477 29.1032 30.6953 29.1782 30.6445C29.1844 30.7602 29.343 30.718 29.3602 30.8203C29.2423 30.8274 29.3649 31.082 29.1407 31.0203ZM30.6016 29.9688C30.3626 30.0899 30.5391 29.7719 30.4024 29.7852C30.4298 29.6836 30.5868 29.7219 30.5962 29.6047L30.8204 29.7727C30.6837 29.7688 30.8516 30.1039 30.6016 29.9688Z" fill="#DCE1EC"/>
<path fill-rule="evenodd" clip-rule="evenodd" d="M20.9243 28.5102C20.6743 28.6516 20.8375 28.3352 20.7219 28.3289C20.7336 28.2125 20.9102 28.2625 20.918 28.1391C20.9415 28.2531 21.093 28.2203 21.1258 28.3227C20.9766 28.3008 21.1891 28.6594 20.9243 28.5102Z" fill="#D4DAE7"/>
<path fill-rule="evenodd" clip-rule="evenodd" d="M21.9375 26.1367C21.7961 26.1274 21.9774 25.9047 21.804 25.9188C21.8336 25.7938 21.9672 25.8195 22.0407 25.7547C22.0782 25.8336 22.1844 25.8516 22.1899 25.9649C22.2024 26.1719 22.0188 26.0649 21.9375 26.1367Z" fill="#F2F4F7"/>
<path fill-rule="evenodd" clip-rule="evenodd" d="M26.0548 27.7867C25.8384 27.9109 25.9524 27.6336 25.8524 27.6031C25.9204 27.5469 25.986 27.4898 26.0548 27.432C26.0594 27.5477 26.2805 27.5219 26.218 27.6109C26.1805 27.6641 26.3016 27.907 26.0548 27.7867Z" fill="#E6E9F1"/>
<path fill-rule="evenodd" clip-rule="evenodd" d="M25.0859 27.0906C24.8391 27.1156 25.0938 26.8914 24.9336 26.8969C24.9961 26.8383 25.0562 26.7383 25.1266 26.732C25.1875 26.7258 25.2578 26.825 25.3242 26.8797C25.2375 26.9633 25.2508 27.1789 25.0859 27.0906Z" fill="#EAEDF3"/>
<path fill-rule="evenodd" clip-rule="evenodd" d="M31.0798 28.9141C31.1306 29.0484 31.2306 29.0664 31.3087 29.1141C31.229 29.2039 31.1978 29.3414 31.0321 29.3414C30.8626 29.343 30.9774 29.2141 30.9392 29.1539C30.8446 29.0039 31.1938 29.1305 31.0798 28.9141Z" fill="#E4E8F0"/>
<path fill-rule="evenodd" clip-rule="evenodd" d="M29.311 31.6359C29.2517 31.7242 29.2923 31.8086 29.1345 31.8117C28.954 31.8148 29.0118 31.6828 29.004 31.6422C28.9892 31.575 29.0923 31.5109 29.1517 31.5242C29.2032 31.5336 29.3032 31.5625 29.311 31.6359Z" fill="#CED5E4"/>
<path fill-rule="evenodd" clip-rule="evenodd" d="M20.8703 29.1328C20.7414 29.1477 20.8485 29.3164 20.6852 29.3109C20.536 29.3062 20.5578 29.2055 20.5414 29.1445C20.5156 29.0594 20.6414 29.0617 20.6696 28.9977C20.7289 29.0391 20.7891 29.0805 20.8703 29.1328Z" fill="#DAE0EB"/>
<path fill-rule="evenodd" clip-rule="evenodd" d="M28.9609 30.025C29.0164 29.9836 29.0719 29.9453 29.1305 29.9062C29.1352 29.993 29.3219 29.943 29.2594 30.0539C29.2336 30.0984 29.2969 30.2203 29.1352 30.2094C28.9898 30.1992 29.0242 30.0977 28.9609 30.025Z" fill="#D8DEE9"/>
<path fill-rule="evenodd" clip-rule="evenodd" d="M28.3672 30.293C28.3391 30.4469 28.2516 30.4719 28.1555 30.4899C27.9922 30.5172 28.1149 30.3945 28.0883 30.3477C28.0196 30.2305 28.193 30.2531 28.2133 30.1766C28.2586 30.2359 28.3625 30.2344 28.3672 30.293Z" fill="#CBD2E3"/>
<path fill-rule="evenodd" clip-rule="evenodd" d="M27.4532 25.2266C27.3985 25.2524 27.4712 25.3828 27.354 25.3453C27.2649 25.3149 27.1555 25.2727 27.1634 25.1633C27.1665 25.1211 27.2727 25.0859 27.3321 25.0492C27.3423 25.1281 27.511 25.1024 27.4532 25.2266Z" fill="#D1D8E6"/>
<path fill-rule="evenodd" clip-rule="evenodd" d="M31.8742 28.6531C31.7273 28.7109 31.7937 28.5898 31.768 28.5547C31.6695 28.4211 31.8641 28.4406 31.8742 28.3609C31.9344 28.4008 32.0516 28.4461 32.0469 28.4805C32.0435 28.5251 32.0242 28.5671 31.9925 28.5987C31.9608 28.6304 31.9189 28.6497 31.8742 28.6531Z" fill="#DADFEA"/>
<path fill-rule="evenodd" clip-rule="evenodd" d="M24.3204 27.4609C24.3204 27.5516 24.5032 27.5156 24.4415 27.6289C24.4165 27.675 24.4696 27.7984 24.3431 27.7727C24.247 27.7531 24.1501 27.6969 24.147 27.6016C24.147 27.557 24.2579 27.5094 24.3204 27.4609Z" fill="#CAD2E2"/>
<path fill-rule="evenodd" clip-rule="evenodd" d="M26.8204 30.2875C26.7485 30.2539 26.7454 30.1594 26.7501 30.1141C26.7579 30.0539 26.8384 29.9727 26.9071 30.0055C26.9493 30.0258 27.0688 30.0141 27.0399 30.1234C27.0134 30.2281 26.9087 30.243 26.8204 30.2875Z" fill="#D0D7E5"/>
<path fill-rule="evenodd" clip-rule="evenodd" d="M29.8438 30.15C29.8469 30.1492 29.9016 30.0735 29.9633 30.0719C30.0078 30.0703 30.0531 30.1625 30.1008 30.2141C30.0367 30.232 30.0914 30.35 29.9648 30.3485C29.8508 30.3461 29.8508 30.2945 29.8438 30.15Z" fill="#EFF2F6"/>
<path fill-rule="evenodd" clip-rule="evenodd" d="M24.8173 28.1719C24.7962 28.2563 24.7962 28.3086 24.7212 28.307C24.6446 28.3055 24.6071 28.2774 24.6087 28.1992C24.6087 28.1375 24.6493 28.0945 24.6954 28.0985C24.7485 28.1024 24.8243 28.1172 24.8173 28.1719Z" fill="#CCD4E3"/>
<path fill-rule="evenodd" clip-rule="evenodd" d="M20.0266 26.9563C20.0641 26.9969 20.1071 27.0289 20.1235 27.0703C20.1375 27.1047 20.1156 27.157 20.0672 27.1625C20.0133 27.1672 19.9555 27.1656 19.9383 27.0985C19.9227 27.0328 19.9797 27.0094 20.0266 26.9563Z" fill="#E0E5EE"/>
<path fill-rule="evenodd" clip-rule="evenodd" d="M19.4742 27.5391C19.4531 27.4492 19.3141 27.5063 19.3047 27.4031C19.3344 27.4813 19.5664 27.307 19.4742 27.5391Z" fill="#7085B1"/>
<path fill-rule="evenodd" clip-rule="evenodd" d="M18.7657 24.1445C18.7485 24.0484 18.6008 24.1242 18.593 24.0141C18.6344 24.0797 18.8438 23.9242 18.7657 24.1445Z" fill="#5C75A7"/>
<path fill-rule="evenodd" clip-rule="evenodd" d="M27.4297 23.3719C27.4445 23.3125 27.4922 23.2156 27.4734 23.1977C27.2187 22.9711 27.5586 22.9328 27.6094 22.8867C27.7023 22.7969 27.6875 23.1758 27.9328 22.9359C27.8008 23.2289 27.6242 23.3133 27.4211 23.3633L27.4297 23.3719Z" fill="#E7EAF2"/>
<path fill-rule="evenodd" clip-rule="evenodd" d="M19.8992 23.1289C19.6508 23.1047 19.8719 22.7812 19.818 22.5937C19.7508 22.3516 19.9274 22.3547 20.0992 22.3539C20.3656 22.3523 20.5164 22.4648 20.5164 22.7461C20.5156 23.0226 20.3875 23.132 19.8992 23.1289Z" fill="#15A24A"/>
<path fill-rule="evenodd" clip-rule="evenodd" d="M29.3914 24.6898C29.3367 24.857 29.1344 24.9617 29.1 25.168C29.0969 25.1953 29.0187 25.1898 29.0039 25.1101C28.9414 24.7367 28.9383 24.7375 28.6625 24.9375C28.6406 24.9539 28.6023 24.9687 28.5812 24.9617C28.5406 24.9437 28.5242 24.9031 28.5484 24.857C28.6398 24.6789 28.7258 24.4961 28.8281 24.3234C28.8969 24.2094 28.9804 24.3047 29.0476 24.3375C29.1953 24.4102 29.3773 24.4516 29.3914 24.6898Z" fill="#13A248"/>
<path fill-rule="evenodd" clip-rule="evenodd" d="M30.0906 25.2977C29.9469 25.3555 29.8773 25.2469 29.7852 25.2078C29.7227 25.1813 29.6641 25.1563 29.6219 25.2258C29.5758 25.2992 29.6219 25.3414 29.6852 25.3742C29.7336 25.3984 29.7852 25.4172 29.8211 25.4555C29.8844 25.5219 30.0828 25.5039 30.0023 25.6453C29.9391 25.7578 29.8328 25.6266 29.7625 25.5852C29.6414 25.5109 29.4016 25.4703 29.4273 25.3414C29.4672 25.1344 29.5852 24.9094 29.7422 24.7672C29.868 24.6531 30.007 24.8688 30.1484 24.9227C30.2094 24.9453 30.3133 24.9656 30.2953 25.0617C30.2781 25.1609 30.2047 25.1031 30.1484 25.0899C30.0164 25.0594 29.8883 24.8359 29.7844 24.9906C29.7219 25.0828 29.9789 25.1211 30.0602 25.2227C30.0727 25.2375 30.0758 25.2578 30.0906 25.2977ZM31.7742 26.4023C31.7977 26.5852 31.7234 26.7094 31.532 26.6781C31.3336 26.6453 31.1828 26.5242 31.1484 26.307C31.1453 26.2852 31.1719 26.2406 31.1937 26.2344C31.2063 26.2303 31.2197 26.2289 31.2328 26.2305C31.246 26.2321 31.2586 26.2366 31.2699 26.2436C31.2811 26.2506 31.2907 26.2599 31.2979 26.271C31.3052 26.2821 31.3099 26.2947 31.3117 26.3078C31.3367 26.457 31.4148 26.5234 31.5719 26.5266C31.6023 26.282 31.1609 26.1703 31.4148 25.9164C31.5422 25.7891 31.6977 25.8945 31.8086 25.9969C31.9109 26.0898 32.0359 26.1922 31.8492 26.325C31.8226 26.3109 31.7867 26.2883 31.7672 26.3039C31.7273 26.3305 31.7664 26.3688 31.7742 26.4023Z" fill="#11A147"/>
<path fill-rule="evenodd" clip-rule="evenodd" d="M26.3782 24.0758C26.2853 24.0234 26.2899 23.9734 26.3048 23.9188C26.3345 23.8023 26.2743 23.7414 26.1681 23.7086C26.0618 23.6742 25.9798 23.6789 25.9509 23.8117C25.9407 23.8711 25.9095 23.9125 25.8446 23.8906C25.7696 23.8633 25.8071 23.8023 25.8212 23.7578C25.8509 23.6555 25.8774 23.5523 25.9243 23.4547C25.9665 23.357 25.9368 23.1781 26.0907 23.1898C26.254 23.2016 26.4306 23.2406 26.5548 23.3758C26.6103 23.4352 26.6329 23.5375 26.5876 23.582C26.4556 23.718 26.4665 23.9102 26.3782 24.0758Z" fill="#0FA046"/>
<path fill-rule="evenodd" clip-rule="evenodd" d="M21.5571 23.0813C21.3048 23.1766 21.1056 23.1211 20.911 23.125C20.8228 23.1274 20.8149 23.0609 20.8149 22.9938C20.8212 22.9195 20.8212 22.8445 20.8212 22.7703C20.8306 22.3586 20.9767 22.2531 21.3813 22.368C21.4267 22.3805 21.4696 22.3883 21.4728 22.4391C21.4728 22.5094 21.422 22.5219 21.3595 22.5203C21.3509 22.5188 21.3407 22.5164 21.3298 22.518C21.2087 22.5477 20.9915 22.4109 20.9876 22.5922C20.9829 22.7313 21.2196 22.6328 21.3407 22.6797C21.3579 22.6867 21.3767 22.7024 21.4032 22.7219C21.3267 22.8602 21.1993 22.7828 21.1009 22.7992C21.0423 22.8086 20.9657 22.7828 20.9571 22.8781C20.9462 22.9906 21.0243 22.9852 21.1009 22.993C21.2313 23.0086 21.3728 22.9594 21.5571 23.0813Z" fill="#0B9F43"/>
<path fill-rule="evenodd" clip-rule="evenodd" d="M19.4829 23.1406C19.3469 23.1109 19.3657 23.0328 19.3423 22.9781C19.3016 22.8773 19.2212 22.8773 19.1329 22.8844C19.0321 22.8937 18.9774 22.9328 18.986 23.0445C18.9923 23.0992 19.0141 23.1875 18.9126 23.175C18.8251 23.1641 18.8501 23.0789 18.8454 23.0211C18.8376 22.9266 18.8282 22.8297 18.8376 22.7359C18.8501 22.6312 18.7501 22.4711 18.9009 22.4336C19.0563 22.393 19.236 22.3641 19.3977 22.4414C19.468 22.475 19.5235 22.557 19.4977 22.6234C19.4384 22.7906 19.4852 22.9602 19.4829 23.1406Z" fill="#079D3F"/>
<path fill-rule="evenodd" clip-rule="evenodd" d="M17.8336 22.875C17.8586 22.6633 17.9516 22.4914 18.1836 22.4992C18.4063 22.5062 18.525 22.6609 18.525 22.8836C18.525 23.1047 18.4219 23.257 18.1867 23.2555C17.9477 23.2539 17.8664 23.0805 17.8336 22.875Z" fill="#15A24A"/>
<path fill-rule="evenodd" clip-rule="evenodd" d="M32.7063 26.8438C32.6844 27.0539 32.5805 27.2125 32.3406 27.2336C32.1195 27.2516 32.0024 27.125 31.9852 26.9172C31.9656 26.707 32.1719 26.5063 32.382 26.5078C32.5664 26.5094 32.7016 26.643 32.7063 26.8438Z" fill="#11A147"/>
<path fill-rule="evenodd" clip-rule="evenodd" d="M28.3204 24.3985C28.497 24.5406 28.2829 24.6344 28.2751 24.7539C28.1282 24.686 27.9446 24.7133 27.8259 24.5844C27.6993 24.4469 27.7227 24.2914 27.8055 24.1399C27.897 23.9797 28.0376 23.911 28.2102 23.9719C28.368 24.0281 28.486 24.1344 28.4095 24.3344C28.2884 24.3563 28.1891 24.1969 28.0188 24.3039C28.1321 24.3563 28.268 24.2836 28.3204 24.3985Z" fill="#0C9F43"/>
<path fill-rule="evenodd" clip-rule="evenodd" d="M24.0704 22.7891C23.9672 22.9102 23.8915 22.8633 23.8204 22.8648C23.7516 22.8648 23.6782 22.8078 23.593 22.8789C23.6696 23.0039 23.8547 22.9234 23.9266 23.0477C23.9165 23.0656 23.9118 23.0898 23.8985 23.1023C23.7954 23.1836 23.6305 22.9867 23.5665 23.1492C23.5079 23.2891 23.6618 23.2406 23.7282 23.2641C23.8032 23.2937 23.8961 23.2828 23.9868 23.3844C23.7766 23.4766 23.5258 23.4336 23.4391 23.332C23.3024 23.1719 23.3985 22.8875 23.5024 22.7453C23.625 22.5773 23.8493 22.7414 24.0704 22.7891Z" fill="#19A44D"/>
<path fill-rule="evenodd" clip-rule="evenodd" d="M25.4023 23.4688C25.225 23.45 25.0234 23.325 24.9726 23.6172C24.9711 23.6266 24.9094 23.6398 24.8906 23.6273C24.8695 23.6156 24.8578 23.5719 24.8617 23.5469C24.9078 23.3617 24.9312 23.1633 25.0133 22.9969C25.1086 22.8094 25.2703 22.968 25.4039 22.9859C25.5633 23.007 25.6516 23.1039 25.6344 23.2719C25.6187 23.4164 25.5094 23.4555 25.4023 23.4688Z" fill="#0D9F44"/>
<path fill-rule="evenodd" clip-rule="evenodd" d="M27.5156 23.9164C27.4985 24.1516 27.3828 24.3141 27.1477 24.3211C26.9375 24.3289 26.8195 24.1813 26.8242 23.9719C26.8305 23.7453 26.9406 23.5813 27.1852 23.5742C27.4094 23.5664 27.4961 23.7172 27.5156 23.9164Z" fill="#0FA046"/>
<path fill-rule="evenodd" clip-rule="evenodd" d="M22.2492 23.068C22.2234 23.1235 22.2023 23.2024 22.1281 23.1844C21.9992 23.1539 22.057 23.0297 22.0258 22.9485C21.9305 22.8555 21.9555 22.9836 21.9258 23.007C21.9148 23.0649 21.9414 23.1531 21.8633 23.1649C21.7672 23.1766 21.7898 23.0844 21.7922 23.0297C21.8 22.9156 21.8016 22.7961 21.8328 22.6867C21.8601 22.593 21.7609 22.4203 21.9476 22.4188C22.1125 22.418 22.0766 22.586 22.0976 22.6867C22.1195 22.8024 22.1312 22.8516 22.2258 22.7367C22.3234 22.711 22.3437 22.782 22.3664 22.8508C22.3789 22.9508 22.3344 23.0203 22.2492 23.068Z" fill="#0EA044"/>
<path fill-rule="evenodd" clip-rule="evenodd" d="M30.5703 25.9375C30.6281 25.9375 30.6867 26.0141 30.743 25.9485C30.786 25.8992 30.7477 25.8508 30.7094 25.811C30.6813 25.7805 30.6516 25.7516 30.625 25.7188C30.5453 25.6227 30.4336 25.5305 30.5438 25.3914C30.6438 25.2641 30.7602 25.2953 30.8758 25.3758C30.8969 25.4164 30.8899 25.4555 30.868 25.4922C30.7828 25.6258 30.9414 25.707 30.9383 25.8211C30.9625 25.9281 30.9781 26.036 30.8602 26.0977C30.7133 26.1758 30.6 26.1039 30.4922 26.0102C30.4805 25.9485 30.5031 25.918 30.5703 25.9375Z" fill="#10A146"/>
<path fill-rule="evenodd" clip-rule="evenodd" d="M28.3203 24.3984C28.2602 24.4406 28.1391 24.3039 28.143 24.407C28.1508 24.5899 28.0594 24.5734 27.9742 24.5195C27.8594 24.4484 27.8531 24.3266 27.9258 24.2141C27.9961 24.1039 28.0953 24.0399 28.2156 24.1297C28.2891 24.1836 28.3445 24.2649 28.4078 24.3344L28.3203 24.3984Z" fill="#ECF7F0"/>
<path fill-rule="evenodd" clip-rule="evenodd" d="M22.3008 22.8828C22.278 22.8346 22.253 22.7874 22.2258 22.7414C22.2532 22.6719 22.2782 22.6016 22.311 22.5344C22.3407 22.4711 22.3922 22.4359 22.4649 22.4594C22.5461 22.4867 22.5399 22.5492 22.5352 22.6149C22.518 22.8063 22.5024 22.9969 22.4875 23.1883C22.3735 23.2609 22.3446 23.1945 22.3258 23.0961C22.3118 23.025 22.3485 22.9484 22.3008 22.8828Z" fill="#17A34C"/>
<path fill-rule="evenodd" clip-rule="evenodd" d="M30.9407 25.8203C30.8703 25.7484 30.7953 25.6805 30.7297 25.6039C30.6532 25.5133 30.6828 25.4578 30.7969 25.443C30.9617 25.4797 31.0625 25.5594 31.0141 25.7484C30.9914 25.7719 30.9664 25.7969 30.9407 25.8203Z" fill="#D7EFE0"/>
<path fill-rule="evenodd" clip-rule="evenodd" d="M31.0141 25.7484C30.9383 25.65 30.918 25.5094 30.7969 25.443L30.8781 25.375C31.0094 25.468 31.2492 25.5211 31.0141 25.7484Z" fill="#2BAB5B"/>
<path fill-rule="evenodd" clip-rule="evenodd" d="M31.7742 26.4023C31.764 26.3961 31.7508 26.393 31.7461 26.3844C31.6836 26.2687 31.4765 26.1648 31.5469 26.0625C31.6351 25.9391 31.7273 26.0851 31.7758 26.1906C31.7976 26.2351 31.8242 26.2789 31.8492 26.325C31.8234 26.3508 31.7976 26.3766 31.7742 26.4023Z" fill="#E6F5EC"/>
<path fill-rule="evenodd" clip-rule="evenodd" d="M30.5704 25.9375C30.5454 25.9617 30.5211 25.9867 30.4922 26.0109C30.4594 25.9875 30.4141 25.9711 30.393 25.9375C30.3532 25.8617 30.2391 25.7609 30.3711 25.7016C30.4821 25.6484 30.4821 25.7898 30.518 25.8586C30.5329 25.8875 30.5516 25.9117 30.5704 25.9375Z" fill="#29AA59"/>
<path fill-rule="evenodd" clip-rule="evenodd" d="M22.3009 22.8828C22.4149 22.9273 22.3548 23.0227 22.3563 23.0937C22.3626 23.1914 22.397 23.2242 22.4884 23.1898C22.2978 23.3742 22.322 23.1281 22.2485 23.0734C22.2681 23.0086 22.2829 22.9453 22.3009 22.8828Z" fill="#DDF1E4"/>
<path fill-rule="evenodd" clip-rule="evenodd" d="M21.9219 23.0078V22.7563C22.0297 22.7906 22.0328 22.8664 22.0219 22.9492C21.9891 22.9688 21.9547 22.9875 21.9219 23.0078Z" fill="#6FC690"/>
<path fill-rule="evenodd" clip-rule="evenodd" d="M19.9751 22.75C19.986 22.6359 19.9313 22.4875 20.1259 22.5C20.2681 22.5086 20.3712 22.5656 20.379 22.7281C20.3868 22.9031 20.2845 22.9742 20.1228 22.9859C19.9173 23.0024 20.0009 22.8406 19.9751 22.75Z" fill="#F5FBF7"/>
<path fill-rule="evenodd" clip-rule="evenodd" d="M28.9844 24.4688C29.0657 24.5133 29.1899 24.5219 29.2164 24.6422C29.2297 24.7047 29.1758 24.7461 29.1203 24.7281C29.0172 24.6969 28.8805 24.6953 28.8664 24.55C28.8625 24.5078 28.9078 24.4547 28.9844 24.4688Z" fill="#EFF8F3"/>
<path fill-rule="evenodd" clip-rule="evenodd" d="M26.4509 23.5078C26.4298 23.5891 26.3727 23.6172 26.3071 23.593C26.2188 23.561 26.0766 23.5961 26.0751 23.4414C26.072 23.361 26.1266 23.3367 26.2001 23.361C26.297 23.3922 26.4141 23.3883 26.4509 23.5078Z" fill="#DEF2E5"/>
<path fill-rule="evenodd" clip-rule="evenodd" d="M19.1524 22.5461C19.229 22.5555 19.3501 22.5148 19.3423 22.6453C19.3344 22.7594 19.2188 22.7414 19.136 22.743C19.0696 22.7453 18.9743 22.7797 18.968 22.6601C18.9634 22.518 19.0743 22.5625 19.1524 22.5461Z" fill="#F3FAF5"/>
<path fill-rule="evenodd" clip-rule="evenodd" d="M18.1641 22.6547C18.3055 22.6641 18.3758 22.7484 18.3813 22.8813C18.3891 23 18.3305 23.1016 18.2086 23.1125C18.068 23.1258 18.0047 23.0188 17.9969 22.8883C17.9891 22.768 18.036 22.6805 18.1641 22.6547Z" fill="#F3FAF6"/>
<path fill-rule="evenodd" clip-rule="evenodd" d="M32.5508 26.8711C32.5304 27.0008 32.4523 27.0922 32.3015 27.0922C32.1804 27.0906 32.1351 27.0024 32.1476 26.8953C32.1594 26.75 32.2461 26.6563 32.3937 26.6586C32.5101 26.6617 32.5554 26.7453 32.5508 26.8711Z" fill="#F9FCFA"/>
<path fill-rule="evenodd" clip-rule="evenodd" d="M25.2187 23.0844C25.2976 23.1328 25.4562 23.0828 25.4789 23.2391C25.4859 23.2984 25.4203 23.3289 25.368 23.3172C25.2656 23.2945 25.1226 23.3313 25.1101 23.1664C25.1078 23.1156 25.1305 23.0609 25.2187 23.0844Z" fill="#E7F5EC"/>
<path fill-rule="evenodd" clip-rule="evenodd" d="M27.3594 23.9352C27.3445 24.0703 27.2781 24.1648 27.1414 24.1648C27.007 24.1664 26.9594 24.0727 26.9656 23.9492C26.9766 23.8133 27.0539 23.7227 27.1859 23.7172C27.3172 23.7125 27.3594 23.8172 27.3594 23.9352Z" fill="#F5FBF7"/>
</svg>
