<svg width="50" height="50" viewBox="0 0 50 50" fill="none" xmlns="http://www.w3.org/2000/svg">
<path d="M20.3125 13.875V16.5156H49.9727C49.9312 15.6641 49.8422 14.5875 49.5234 13.875" fill="#EC1C24"/>
<path d="M48.125 11.2344H20.3125V13.875H49.5234C49.2062 12.8898 48.7344 11.9914 48.125 11.2344Z" fill="#E6E7E8"/>
<path d="M42.1875 8.59375H20.3125V11.2344H48.125C46.8211 9.60156 44.675 8.59375 42.1875 8.59375Z" fill="#EC1C24"/>
<path d="M49.9727 16.5156H20.3125V19.1563H50V17.3961C50 17.2391 49.9898 17.0859 49.9852 16.932C49.982 16.8898 49.9773 16.7813 49.9727 16.5156Z" fill="#E6E7E8"/>
<path d="M20.3125 21.7969H50V19.1562H20.3125V21.7969Z" fill="#EC1C24"/>
<path d="M20.3125 24.4375H50V21.7969H20.3125V24.4375Z" fill="#E6E7E8"/>
<path d="M20.3125 24.4375H50V27.0781H20.3125V24.4375Z" fill="#EC1C24"/>
<path d="M0 27.0781V29.7188H50V27.0781H20.3125H0Z" fill="#E6E7E8"/>
<path d="M0 29.7188H50V32.3594H0V29.7188Z" fill="#EC1C24"/>
<path d="M0.00390625 33.9836C0.00390625 33.9836 -0.003125 34.6234 0.015625 35H49.9844C50.0062 34.6141 49.9961 33.9836 49.9961 33.9836L50 32.3594H0L0.00390625 33.9836Z" fill="#E6E7E8"/>
<path d="M7.8125 42.9687H42.1875C44.682 42.9687 46.7555 42.0625 48.1719 40.2812H1.82031C3.28281 42.1016 5.39531 42.9687 7.80859 42.9687" fill="#EC1C24"/>
<path d="M1.82422 40.2813H48.1758C48.7937 39.4961 49.2552 38.5997 49.5352 37.6406H0.472656C0.757888 38.5968 1.21743 39.4921 1.82812 40.2813" fill="#E6E7E8"/>
<path d="M0.46875 37.6406H49.5312C49.7871 36.7816 49.9392 35.8951 49.9844 35H0.015625C0.0929687 35.9031 0.164844 36.5852 0.46875 37.6406Z" fill="#EC1C24"/>
<path d="M20.3125 8.59375H7.8125C2.63516 8.59375 0 12.4414 0 17.1875V27.0781H20.3125V8.59375Z" fill="#176496"/>
<path d="M2.18599 13.2625L2.61099 12.9359L3.03521 13.2625L2.87036 12.7375L3.29302 12.4164H2.77114L2.60942 11.8891L2.44849 12.4164H1.92739L2.35161 12.7375L2.18599 13.2625ZM4.9938 13.2625L5.4188 12.9359L5.84302 13.2625L5.67895 12.7375L6.10083 12.4164H5.57974L5.41802 11.8891L5.25708 12.4164H4.73442L5.15864 12.7375L4.9938 13.2625ZM8.09145 13.2625L8.51567 12.9359L8.94067 13.2625L8.77583 12.7375L9.1977 12.4164H8.67974L8.51567 11.8891L8.35395 12.4164H7.83599L8.25552 12.7375L8.09145 13.2625ZM11.1665 13.2625L11.5907 12.9359L12.0157 13.2625L11.8516 12.7375L12.2735 12.4164H11.75L11.5907 11.8891L11.4297 12.4164H10.9079L11.3313 12.7375L11.1665 13.2625ZM14.2524 13.2625L14.6774 12.9359L15.1016 13.2625L14.9375 12.7375L15.3602 12.4164H14.8375L14.6766 11.8891L14.5157 12.4164H13.9946L14.4165 12.7375L14.2524 13.2625ZM3.68052 14.6336L4.10474 14.3078L4.52895 14.6336L4.36567 14.1094L4.78755 13.7883H4.26567L4.10395 13.2617L3.94536 13.7883H3.42192L3.84458 14.1094L3.68052 14.6336ZM6.48911 14.6336L6.91333 14.3078L7.33755 14.6336L7.17349 14.1094L7.59536 13.7883H7.07036L6.91333 13.2617L6.75161 13.7883H6.23052L6.65317 14.1094L6.48911 14.6336ZM9.58677 14.6336L10.0102 14.3078L10.4344 14.6336L10.2704 14.1094L10.693 13.7883H10.1719L10.0102 13.2617L9.84849 13.7883H9.32661L9.74927 14.1094L9.58677 14.6336ZM12.6602 14.6336L13.0852 14.3078L13.5102 14.6336L13.3438 14.1094L13.7672 13.7883H13.2461L13.0844 13.2617L12.9243 13.7883H12.4024L12.825 14.1094L12.6602 14.6336ZM15.75 14.6336L16.1711 14.3078L16.5954 14.6336L16.4297 14.1094L16.8532 13.7883H16.3329L16.1704 13.2617L16.0102 13.7883H15.4883L15.911 14.1094L15.75 14.6336ZM17.4899 13.2625L17.9141 12.9359L18.3391 13.2625L18.1743 12.7375L18.5961 12.4164H18.0782L17.9133 11.8891L17.7524 12.4164H17.2266L17.654 12.7375L17.4899 13.2625ZM2.14458 24.2344L2.56958 23.9117L2.9938 24.2344L2.82974 23.7141L3.25161 23.3922L2.73052 23.3938L2.56802 22.8672L2.40864 23.3938L1.88599 23.3922L2.30864 23.7141L2.14458 24.2344ZM4.95317 24.2344L5.37739 23.9117L5.80239 24.2344L5.63755 23.7141L6.05942 23.3922L5.53911 23.3938L5.37661 22.8672L5.21645 23.3938L4.69536 23.3922L5.11724 23.7141L4.95317 24.2344ZM8.05083 24.2344L8.47505 23.9117L8.90005 24.2344L8.7352 23.7141L9.15708 23.3922L8.63286 23.3938L8.47427 22.8672L8.31333 23.3938L7.79224 23.3922L8.21489 23.7141L8.05083 24.2344ZM11.1258 24.2344L11.55 23.9117L11.9743 24.2344L11.8125 23.7141L12.2321 23.3922L11.7102 23.3938L11.5493 22.8672L11.3883 23.3938L10.8672 23.3922L11.2891 23.7141L11.1258 24.2344ZM14.211 24.2344L14.636 23.9117L15.061 24.2344L14.8985 23.7141L15.318 23.3922L14.7969 23.3938L14.6352 22.8672L14.475 23.3938L13.9532 23.3922L14.375 23.7141L14.211 24.2344ZM17.4485 24.2344L17.8727 23.9117L18.2977 24.2344L18.1329 23.7141L18.5555 23.3922L18.0313 23.3938L17.8719 22.8672L17.711 23.3938L17.1875 23.3922L17.6125 23.7141L17.4485 24.2344ZM2.18599 16.0063L2.61099 15.6797L3.03521 16.0063L2.87036 15.4813L3.29302 15.1602L2.77114 15.1617L2.60942 14.6336L2.44849 15.1617L1.92739 15.1602L2.35161 15.4813L2.18599 16.0063ZM4.9938 16.0063L5.4188 15.6797L5.84302 16.0063L5.67895 15.4813L6.10083 15.1602L5.57974 15.1617L5.41802 14.6336L5.25708 15.1617L4.73442 15.1602L5.15864 15.4813L4.9938 16.0063ZM8.09145 16.0063L8.51567 15.6797L8.94067 16.0063L8.77583 15.4813L9.1977 15.1602L8.67974 15.1617L8.51567 14.6336L8.35395 15.1617L7.83599 15.1602L8.25552 15.4813L8.09145 16.0063ZM11.1665 16.0063L11.5907 15.6797L12.0157 16.0063L11.8516 15.4813L12.2735 15.1602L11.75 15.1617L11.5907 14.6336L11.4297 15.1617L10.9079 15.1602L11.3313 15.4813L11.1665 16.0063ZM14.2524 16.0063L14.6774 15.6797L15.1016 16.0063L14.9375 15.4813L15.3602 15.1602L14.8375 15.1617L14.6766 14.6336L14.5157 15.1617L13.9946 15.1602L14.4165 15.4813L14.2524 16.0063ZM3.68052 17.3781L4.10474 17.0523L4.52895 17.3781L4.36567 16.8539L4.78755 16.5313H4.26567L4.10395 16.0063L3.94536 16.5313H3.42192L3.84458 16.8539L3.68052 17.3781ZM6.48911 17.3781L6.91333 17.0523L7.33755 17.3781L7.17349 16.8539L7.59536 16.5313H7.07036L6.91333 16.0063L6.75161 16.5313H6.23052L6.65317 16.8539L6.48911 17.3781ZM9.58677 17.3781L10.0102 17.0523L10.4344 17.3781L10.2704 16.8539L10.693 16.5313H10.1719L10.0102 16.0063L9.84849 16.5313H9.32661L9.74927 16.8539L9.58677 17.3781ZM12.6602 17.3781L13.0852 17.0523L13.5102 17.3781L13.3438 16.8539L13.7672 16.5313H13.2461L13.0844 16.0063L12.9243 16.5313H12.4024L12.825 16.8539L12.6602 17.3781ZM15.75 17.3781L16.1711 17.0523L16.5954 17.3781L16.4297 16.8539L16.8532 16.5313H16.3329L16.1704 16.0063L16.0102 16.5313H15.4883L15.911 16.8539L15.75 17.3781ZM17.4899 16.0063L17.9141 15.6797L18.3391 16.0063L18.1743 15.4813L18.5961 15.1602L18.0782 15.1617L17.9133 14.6336L17.7524 15.1617L17.2266 15.1602L17.654 15.4813L17.4899 16.0063ZM2.14458 18.75L2.56958 18.4242L2.9938 18.75L2.82895 18.2266L3.25161 17.9047L2.72974 17.9063L2.56802 17.3781L2.40864 17.9063L1.88599 17.9047L2.30864 18.2266L2.14458 18.75ZM4.95317 18.75L5.37739 18.4242L5.80239 18.75L5.63755 18.2266L6.05942 17.9047L5.53911 17.9063L5.37661 17.3781L5.21645 17.9063L4.69536 17.9047L5.11645 18.2266L4.95317 18.75ZM8.05083 18.75L8.47505 18.4242L8.89927 18.75L8.7352 18.2266L9.15708 17.9047L8.63286 17.9063L8.47427 17.3781L8.31333 17.9063L7.79224 17.9047L8.21489 18.2266L8.05083 18.75ZM11.1258 18.75L11.5493 18.4242L11.9743 18.75L11.8125 18.2266L12.2321 17.9047L11.7102 17.9063L11.5493 17.3781L11.3883 17.9063L10.8672 17.9047L11.2891 18.2266L11.1258 18.75ZM14.211 18.75L14.636 18.4242L15.0602 18.75L14.8985 18.2266L15.318 17.9047L14.7961 17.9063L14.6352 17.3781L14.475 17.9063L13.9532 17.9047L14.375 18.2266L14.211 18.75ZM3.63911 20.1219L4.06333 19.7969L4.48755 20.1219L4.32427 19.6016L4.74536 19.2781H4.22349L4.06255 18.75L3.90239 19.2781H3.38052L3.80317 19.6016L3.63911 20.1219ZM6.4477 20.1219L6.87192 19.7969L7.29614 20.1219L7.13208 19.6016L7.55395 19.2781H7.0313L6.87114 18.75L6.7102 19.2781H6.18833L6.61177 19.6016L6.4477 20.1219ZM9.54614 20.1219L9.9688 19.7969L10.3938 20.1219L10.2266 19.6016L10.6516 19.2781H10.1305L9.9688 18.75L9.80786 19.2781H9.28599L9.70864 19.6016L9.54614 20.1219ZM12.6172 20.1219L13.0438 19.7969L13.4688 20.1219L13.3047 19.6016L13.7258 19.2781H13.2047L13.043 18.75L12.8829 19.2781H12.361L12.7836 19.6016L12.6172 20.1219ZM15.7032 20.1219L16.1297 19.7969L16.5547 20.1219L16.3899 19.6016L16.8133 19.2781H16.2922L16.1297 18.75L15.9688 19.2781H15.4469L15.8696 19.6016L15.7032 20.1219ZM17.4485 18.75L17.8727 18.4242L18.2969 18.75L18.1329 18.2266L18.5555 17.9047L18.0313 17.9063L17.8719 17.3781L17.711 17.9063L17.1875 17.9047L17.6125 18.2266L17.4485 18.75ZM2.14458 21.4945L2.56958 21.1719L2.9938 21.4945L2.82895 20.9703L3.25161 20.6484L2.72974 20.65L2.56802 20.1219L2.40864 20.65L1.88599 20.6484L2.30864 20.9703L2.14458 21.4945ZM4.95317 21.4945L5.37739 21.1719L5.80239 21.4945L5.63755 20.9703L6.05942 20.6484L5.53911 20.65L5.37661 20.1219L5.21645 20.65L4.69536 20.6484L5.11645 20.9703L4.95317 21.4945ZM8.05083 21.4945L8.47505 21.1719L8.89927 21.4945L8.7352 20.9703L9.15708 20.6484L8.63286 20.65L8.47427 20.1219L8.31333 20.65L7.79224 20.6484L8.21489 20.9703L8.05083 21.4945ZM11.1258 21.4945L11.5493 21.1719L11.9743 21.4945L11.8125 20.9703L12.2321 20.6484L11.7102 20.65L11.5493 20.1219L11.3883 20.65L10.8672 20.6484L11.2891 20.9703L11.1258 21.4945ZM14.211 21.4945L14.636 21.1719L15.0602 21.4945L14.8985 20.9703L15.318 20.6484L14.7961 20.65L14.6352 20.1219L14.475 20.65L13.9532 20.6484L14.375 20.9703L14.211 21.4945ZM3.63911 22.8672L4.06333 22.5406L4.48755 22.8672L4.32427 22.3422L4.74536 22.0234H4.22349L4.06255 21.4945L3.90239 22.0234H3.38052L3.80317 22.3422L3.63911 22.8672ZM6.4477 22.8672L6.87192 22.5406L7.29614 22.8672L7.13208 22.3422L7.55395 22.0234H7.0313L6.87114 21.4945L6.7102 22.0234H6.18833L6.61177 22.3422L6.4477 22.8672ZM9.54614 22.8672L9.9688 22.5406L10.3938 22.8672L10.2266 22.3422L10.6516 22.0234H10.1305L9.9688 21.4945L9.80786 22.0234H9.28599L9.70864 22.3422L9.54614 22.8672ZM12.6172 22.8672L13.0438 22.5406L13.4688 22.8672L13.3047 22.3422L13.7258 22.0234H13.2047L13.043 21.4945L12.8829 22.0234H12.361L12.7836 22.3422L12.6172 22.8672ZM15.7032 22.8672L16.1297 22.5406L16.5547 22.8672L16.3899 22.3422L16.8133 22.0234H16.2922L16.1297 21.4945L15.9688 22.0234H15.4469L15.8696 22.3422L15.7032 22.8672ZM17.4485 21.4945L17.8727 21.1719L18.2969 21.4945L18.1329 20.9703L18.5555 20.6484L18.0313 20.65L17.8719 20.1219L17.711 20.65L17.1875 20.6484L17.6125 20.9703L17.4485 21.4945Z" fill="white"/>
</svg>
