<svg width="31" height="32" viewBox="0 0 31 32" fill="none" xmlns="http://www.w3.org/2000/svg">
<path d="M15.4859 7.55728C13.9641 7.55728 12.4764 8.02504 11.211 8.9014C9.94558 9.77776 8.95933 11.0234 8.37694 12.4807C7.79454 13.938 7.64216 15.5416 7.93906 17.0887C8.23596 18.6358 8.96882 20.0569 10.0449 21.1723C11.1211 22.2877 12.4921 23.0473 13.9848 23.3551C15.4774 23.6628 17.0245 23.5048 18.4306 22.9012C19.8366 22.2976 21.0383 21.2753 21.8838 19.9637C22.7293 18.6522 23.1806 17.1102 23.1806 15.5328C23.1831 14.4847 22.9858 13.4465 22.6 12.4777C22.2141 11.5089 21.6474 10.6286 20.9324 9.88753C20.2174 9.14643 19.3682 8.55905 18.4335 8.15916C17.4988 7.75926 16.4971 7.55472 15.4859 7.55728ZM15.4859 20.7266C14.4949 20.7266 13.526 20.422 12.702 19.8513C11.8779 19.2806 11.2357 18.4694 10.8564 17.5204C10.4771 16.5713 10.3779 15.527 10.5713 14.5195C10.7646 13.512 11.2419 12.5866 11.9426 11.8602C12.6434 11.1338 13.5363 10.6392 14.5083 10.4388C15.4804 10.2384 16.4879 10.3412 17.4035 10.7343C18.3192 11.1274 19.1018 11.7931 19.6524 12.6473C20.203 13.5014 20.4969 14.5056 20.4969 15.5328C20.4969 16.9103 19.9689 18.2313 19.0292 19.2054C18.0895 20.1794 16.8149 20.7266 15.4859 20.7266ZM25.3014 7.22659C25.3014 7.61132 25.1913 7.98742 24.9851 8.30731C24.7789 8.6272 24.4858 8.87653 24.1428 9.02376C23.7999 9.17099 23.4225 9.20952 23.0585 9.13446C22.6944 9.0594 22.36 8.87414 22.0975 8.60209C21.8351 8.33004 21.6563 7.98343 21.5839 7.60609C21.5115 7.22875 21.5487 6.83762 21.6907 6.48218C21.8328 6.12673 22.0733 5.82292 22.3819 5.60918C22.6906 5.39543 23.0534 5.28134 23.4246 5.28134C23.9224 5.28134 24.3997 5.48629 24.7517 5.85109C25.1036 6.2159 25.3014 6.71068 25.3014 7.22659ZM30.3874 9.17184C30.442 6.75356 29.5717 4.41103 27.9664 2.65526C26.2815 0.97007 24.0203 0.0466021 21.6792 0.0875361C19.2394 -0.0291787 11.7324 -0.0291787 9.29262 0.0875361C6.96019 0.0351879 4.70163 0.936638 3.00547 2.5969C1.40016 4.35267 0.529867 6.6952 0.584454 9.11348C0.471849 11.6423 0.471849 19.4233 0.584454 21.9521C0.529867 24.3704 1.40016 26.7129 3.00547 28.4687C4.70163 30.1289 6.96019 31.0304 9.29262 30.978C11.7699 31.1337 19.2019 31.1337 21.6792 30.978C24.0124 31.0346 26.2724 30.1326 27.9664 28.4687C29.5717 26.7129 30.442 24.3704 30.3874 21.9521C30.5 19.4233 30.5 11.6423 30.3874 9.11348V9.17184ZM27.1969 24.7338C26.9421 25.4029 26.5574 26.0105 26.0667 26.5191C25.576 27.0277 24.9897 27.4265 24.3442 27.6906C21.4307 28.3011 18.4523 28.5104 15.4859 28.3131C12.5258 28.5107 9.55349 28.3014 6.64639 27.6906C6.0009 27.4265 5.41463 27.0277 4.92392 26.5191C4.43321 26.0105 4.04853 25.4029 3.79371 24.7338C3.00547 22.6718 3.17438 17.8087 3.17438 15.5522C3.17438 13.2958 3.00547 8.41319 3.79371 6.37068C4.04134 5.69503 4.42327 5.08091 4.91473 4.56817C5.40618 4.05543 5.99616 3.65554 6.64639 3.39446C9.55349 2.7836 12.5258 2.57429 15.4859 2.77198C18.4523 2.57462 21.4307 2.78393 24.3442 3.39446C24.9897 3.65857 25.576 4.05729 26.0667 4.5659C26.5574 5.07452 26.9421 5.68218 27.1969 6.35123C27.9851 8.41319 27.7975 13.2763 27.7975 15.5328C27.7975 17.7893 27.9851 22.6718 27.1969 24.7144V24.7338Z" fill="#F6F6F6"/>
</svg>
