<svg width="30" height="30" viewBox="0 0 30 30" fill="none" xmlns="http://www.w3.org/2000/svg">
<path d="M14.9859 7.29121C13.4641 7.29121 11.9764 7.7425 10.711 8.588C9.44558 9.43351 8.45933 10.6353 7.87694 12.0413C7.29454 13.4473 7.14216 14.9945 7.43906 16.4871C7.73596 17.9797 8.46882 19.3508 9.54494 20.4269C10.6211 21.503 11.9921 22.2359 13.4848 22.5328C14.9774 22.8297 16.5245 22.6773 17.9306 22.0949C19.3366 21.5125 20.5383 20.5263 21.3838 19.2609C22.2293 17.9955 22.6806 16.5078 22.6806 14.9859C22.6831 13.9747 22.4858 12.973 22.1 12.0384C21.7141 11.1037 21.1474 10.2544 20.4324 9.53942C19.7174 8.82441 18.8682 8.25771 17.9335 7.87189C16.9988 7.48608 15.9971 7.28874 14.9859 7.29121ZM14.9859 19.9969C13.9949 19.9969 13.026 19.703 12.202 19.1524C11.3779 18.6018 10.7357 17.8192 10.3564 16.9035C9.97714 15.9879 9.87791 14.9804 10.0713 14.0083C10.2646 13.0363 10.7419 12.1434 11.4426 11.4426C12.1434 10.7419 13.0363 10.2646 14.0083 10.0713C14.9804 9.87791 15.9879 9.97714 16.9035 10.3564C17.8192 10.7357 18.6018 11.3779 19.1524 12.202C19.703 13.026 19.9969 13.9949 19.9969 14.9859C19.9969 16.3149 19.4689 17.5895 18.5292 18.5292C17.5895 19.4689 16.3149 19.9969 14.9859 19.9969ZM24.8014 6.97216C24.8014 7.34335 24.6913 7.7062 24.4851 8.01483C24.2789 8.32346 23.9858 8.56401 23.6428 8.70606C23.2999 8.84811 22.9225 8.88527 22.5585 8.81286C22.1944 8.74044 21.86 8.5617 21.5975 8.29923C21.3351 8.03676 21.1563 7.70235 21.0839 7.3383C21.0115 6.97424 21.0487 6.59689 21.1907 6.25396C21.3328 5.91102 21.5733 5.61791 21.8819 5.41169C22.1906 5.20547 22.5534 5.0954 22.9246 5.0954C23.4224 5.0954 23.8997 5.29313 24.2517 5.64509C24.6036 5.99705 24.8014 6.47441 24.8014 6.97216ZM29.8874 8.84892C29.942 6.51578 29.0717 4.25573 27.4664 2.56178C25.7815 0.935917 23.5203 0.0449614 21.1792 0.0844542C18.7394 -0.0281514 11.2324 -0.0281514 8.79262 0.0844542C6.46019 0.033949 4.20163 0.903661 2.50547 2.50547C0.900156 4.19942 0.0298667 6.45948 0.0844542 8.79262C-0.0281514 11.2324 -0.0281514 18.7394 0.0844542 21.1792C0.0298667 23.5124 0.900156 25.7724 2.50547 27.4664C4.20163 29.0682 6.46019 29.9379 8.79262 29.8874C11.2699 30.0375 18.7019 30.0375 21.1792 29.8874C23.5124 29.942 25.7724 29.0717 27.4664 27.4664C29.0717 25.7724 29.942 23.5124 29.8874 21.1792C30 18.7394 30 11.2324 29.8874 8.79262V8.84892ZM26.6969 23.863C26.4421 24.5085 26.0574 25.0948 25.5667 25.5855C25.076 26.0762 24.4897 26.4609 23.8442 26.7157C20.9307 27.3047 17.9523 27.5066 14.9859 27.3162C12.0258 27.507 9.05349 27.305 6.14639 26.7157C5.5009 26.4609 4.91463 26.0762 4.42392 25.5855C3.93321 25.0948 3.54853 24.5085 3.29371 23.863C2.50547 21.8736 2.67438 17.1817 2.67438 15.0047C2.67438 12.8277 2.50547 8.11698 3.29371 6.14639C3.54134 5.49453 3.92327 4.90202 4.41473 4.40734C4.90618 3.91265 5.49616 3.52684 6.14639 3.27495C9.05349 2.6856 12.0258 2.48366 14.9859 2.67438C17.9523 2.48398 20.9307 2.68591 23.8442 3.27495C24.4897 3.52976 25.076 3.91444 25.5667 4.40515C26.0574 4.89586 26.4421 5.48213 26.6969 6.12762C27.4851 8.11699 27.2975 12.8089 27.2975 14.9859C27.2975 17.163 27.4851 21.8736 26.6969 23.8442V23.863Z" fill="#F6F6F6"/>
</svg>
