<svg width="32" height="32" viewBox="0 0 32 32" fill="none" xmlns="http://www.w3.org/2000/svg">
<path d="M30.7427 31.0883H24.3854C23.9357 31.0883 23.5723 30.7116 23.5723 30.2455V19.6338C23.5723 15.9944 21.7612 15.9944 21.1637 15.9944C19.5559 15.9944 18.8721 17.3097 18.6503 17.878C18.5456 18.1334 18.4963 18.5675 18.4963 19.1741V30.252C18.4963 30.7181 18.1329 31.0948 17.6832 31.0948H11.3198C11.1042 31.0948 10.8947 31.0054 10.7407 30.8458C10.5867 30.6862 10.5005 30.469 10.5066 30.2456C10.5066 30.0668 10.5929 12.272 10.5066 10.4523C10.4943 10.2224 10.5744 9.99898 10.7284 9.83297C10.8824 9.66696 11.0919 9.57117 11.3198 9.57117H17.6832C18.1329 9.57117 18.4963 9.94785 18.4963 10.414V10.912C19.5682 9.92232 21.1144 9.10504 23.4182 9.10504C28.5127 9.10504 31.5558 12.7572 31.5558 18.874V30.2455C31.5558 30.7116 31.1923 31.0883 30.7427 31.0883ZM25.1985 29.4027L29.9357 29.4026V18.8739C29.9357 13.734 27.564 10.7906 23.4244 10.7906C20.6585 10.7906 19.3156 12.2208 18.4717 13.5297C18.3731 13.8745 18.0589 14.1299 17.6893 14.1299H17.6463C17.3505 14.1299 17.0795 13.9639 16.9378 13.6958C16.827 13.485 16.8023 13.2424 16.8762 13.0189V11.2503H12.1514C12.1945 14.7684 12.1514 26.1528 12.1391 29.3963H16.8701V19.1677C16.8701 18.3185 16.9563 17.7055 17.1411 17.2394C17.8557 15.407 19.3587 14.3024 21.1575 14.3024C23.7201 14.3024 25.1923 16.2434 25.1923 19.6274V29.4027H25.1986L25.1985 29.4027ZM7.80236 31.0882H1.43894C0.989247 31.0882 0.625827 30.7115 0.625827 30.2454V10.4139C0.625827 9.94779 0.989247 9.57108 1.43894 9.57108H7.80236C8.25205 9.57108 8.61547 9.94779 8.61547 10.4139V30.2454C8.61547 30.7115 8.25205 31.0882 7.80236 31.0882V31.0882ZM2.25211 29.4026H6.98922V11.2566H2.25214V29.4026L2.25211 29.4026ZM4.62372 8.54946L4.58057 8.54943C2.07339 8.54943 0.25 6.74888 0.25 4.27153C0.25 1.80058 2.1042 0 4.66681 0C7.1863 0 8.98509 1.74945 9.03438 4.25237C9.03438 6.74888 7.18019 8.54943 4.62372 8.54943V8.54946ZM4.66681 1.69203C2.99741 1.69203 1.87628 2.73278 1.87628 4.27796C1.87628 5.79755 2.98512 6.86383 4.5806 6.86383H4.62369C6.28695 6.86383 7.40807 5.82308 7.40807 4.27793C7.37727 2.71362 6.29926 1.69203 4.66681 1.69203Z" fill="#F6F6F6"/>
</svg>
