<svg width="32" height="30" viewBox="0 0 32 30" fill="none" xmlns="http://www.w3.org/2000/svg">
<path d="M30.4927 29.9938H24.1354C23.6857 29.9938 23.3223 29.6303 23.3223 29.1807V18.9425C23.3223 15.4312 21.5112 15.4312 20.9137 15.4312C19.3059 15.4312 18.6221 16.7003 18.4003 17.2485C18.2956 17.495 18.2463 17.9138 18.2463 18.4991V29.1869C18.2463 29.6366 17.8829 30 17.4332 30H11.0698C10.8542 30 10.6447 29.9138 10.4907 29.7598C10.3367 29.6058 10.2505 29.3963 10.2566 29.1807C10.2566 29.0082 10.3429 11.84 10.2566 10.0843C10.2443 9.86254 10.3244 9.64694 10.4784 9.48678C10.6324 9.32661 10.8419 9.2342 11.0698 9.2342H17.4332C17.8829 9.2342 18.2463 9.59762 18.2463 10.0473V10.5278C19.3182 9.57298 20.8644 8.78448 23.1682 8.78448C28.2627 8.78448 31.3058 12.308 31.3058 18.2095V29.1807C31.3058 29.6303 30.9423 29.9938 30.4927 29.9938ZM24.9485 28.3675L29.6857 28.3674V18.2094C29.6857 13.2505 27.314 10.4107 23.1744 10.4107C20.4085 10.4107 19.0656 11.7905 18.2217 13.0534C18.1231 13.386 17.8089 13.6325 17.4393 13.6325H17.3963C17.1005 13.6325 16.8295 13.4723 16.6878 13.2136C16.577 13.0103 16.5523 12.7762 16.6262 12.5606V10.8542H11.9014C11.9445 14.2485 11.9014 25.232 11.8891 28.3614H16.6201V18.4928C16.6201 17.6735 16.7063 17.0822 16.8911 16.6325C17.6057 14.8645 19.1087 13.7988 20.9075 13.7988C23.4701 13.7988 24.9423 15.6715 24.9423 18.9364V28.3675H24.9486L24.9485 28.3675ZM7.55236 29.9936H1.18894C0.739247 29.9936 0.375827 29.6302 0.375827 29.1805V10.0472C0.375827 9.59756 0.739247 9.23411 1.18894 9.23411H7.55236C8.00205 9.23411 8.36547 9.59756 8.36547 10.0472V29.1806C8.36547 29.6303 8.00205 29.9937 7.55236 29.9937V29.9936ZM2.00211 28.3675H6.73922V10.8603H2.00214V28.3674L2.00211 28.3675ZM4.37372 8.24845L4.33057 8.24842C1.82339 8.24842 0 6.51127 0 4.12114C0 1.73718 1.8542 0 4.41681 0C6.9363 0 8.73509 1.68786 8.78438 4.10265C8.78438 6.51127 6.93019 8.24842 4.37372 8.24842V8.24845ZM4.41681 1.63245C2.74741 1.63245 1.62628 2.63657 1.62628 4.12734C1.62628 5.59343 2.73512 6.62217 4.3306 6.62217H4.37369C6.03695 6.62217 7.15807 5.61806 7.15807 4.12731C7.12727 2.61808 6.04926 1.63245 4.41681 1.63245Z" fill="#F6F6F6"/>
</svg>
