<svg width="35" height="34" viewBox="0 0 35 34" fill="none" xmlns="http://www.w3.org/2000/svg">
<path d="M6.50615 24.1206C3.72154 24.956 2 26.1098 2 27.3845C2 29.9337 8.88769 31.9998 17.3846 31.9998C25.8815 31.9998 32.7692 29.9337 32.7692 27.3845C32.7692 26.1098 31.0469 24.956 28.2631 24.1206" stroke="#F6F6F6" stroke-width="2.5" stroke-linecap="round" stroke-linejoin="round"/>
<path d="M17.3846 25.8462C17.3846 25.8462 27.3846 19.3108 27.3846 11.7554C27.3846 6.36769 22.9077 2 17.3846 2C11.8615 2 7.38462 6.36769 7.38462 11.7554C7.38462 19.3108 17.3846 25.8462 17.3846 25.8462Z" stroke="#F6F6F6" stroke-width="2.5" stroke-linejoin="round"/>
<path d="M17.3846 15.8461C18.4047 15.8461 19.383 15.4409 20.1043 14.7196C20.8255 13.9983 21.2308 13.02 21.2308 12C21.2308 10.9799 20.8255 10.0016 20.1043 9.28032C19.383 8.55903 18.4047 8.15381 17.3846 8.15381C16.3646 8.15381 15.3863 8.55903 14.665 9.28032C13.9437 10.0016 13.5385 10.9799 13.5385 12C13.5385 13.02 13.9437 13.9983 14.665 14.7196C15.3863 15.4409 16.3646 15.8461 17.3846 15.8461Z" stroke="#F6F6F6" stroke-width="2.5" stroke-linejoin="round"/>
</svg>
