<svg width="30" height="32" viewBox="0 0 30 32" fill="none" xmlns="http://www.w3.org/2000/svg">
<path d="M25.4999 4.52437C24.1247 3.08457 22.4867 1.94299 20.6814 1.16622C18.8761 0.389451 16.9396 -0.00696539 14.985 9.26149e-05C6.79498 9.26149e-05 0.12 6.91866 0.12 15.4075C0.12 18.1283 0.809998 20.7713 2.09999 23.1034L0 31.0948L7.87498 28.9492C10.05 30.1775 12.495 30.8305 14.985 30.8305C23.1749 30.8305 29.8499 23.9119 29.8499 15.423C29.8499 11.303 28.3049 7.43172 25.4999 4.52437ZM14.985 28.2185C12.765 28.2185 10.59 27.5966 8.68497 26.4306L8.23498 26.1507L3.55499 27.4256L4.79999 22.6992L4.49999 22.2172C3.26661 20.1758 2.6117 17.8162 2.60999 15.4075C2.60999 8.34901 8.15998 2.5965 14.97 2.5965C18.2699 2.5965 21.3749 3.93357 23.6999 6.35895C24.8512 7.54671 25.7635 8.9595 26.384 10.5154C27.0046 12.0713 27.321 13.7394 27.3149 15.423C27.3449 22.4815 21.7949 28.2185 14.985 28.2185ZM21.7649 18.6413C21.3899 18.4548 19.5599 17.5219 19.2299 17.382C18.8849 17.2576 18.6449 17.1954 18.3899 17.5686C18.1349 17.9573 17.4299 18.8279 17.2199 19.0767C17.0099 19.341 16.785 19.3721 16.41 19.17C16.035 18.9834 14.835 18.5636 13.425 17.2576C12.315 16.2315 11.58 14.9722 11.355 14.5835C11.145 14.1948 11.325 13.9927 11.52 13.7906C11.685 13.6196 11.895 13.3397 12.075 13.122C12.255 12.9044 12.33 12.7334 12.45 12.4846C12.57 12.2203 12.51 12.0026 12.42 11.8161C12.33 11.6295 11.58 9.73273 11.28 8.95536C10.98 8.20909 10.665 8.30237 10.44 8.28682H9.71997C9.46497 8.28682 9.07497 8.38011 8.72997 8.76879C8.39997 9.15747 7.43998 10.0903 7.43998 11.9871C7.43998 13.8839 8.77497 15.7184 8.95497 15.9672C9.13497 16.2315 11.58 20.1183 15.3 21.7819C16.185 22.1861 16.875 22.4194 17.4149 22.5904C18.2999 22.8858 19.1099 22.8391 19.7549 22.7458C20.4749 22.637 21.9599 21.813 22.2599 20.9113C22.5749 20.0095 22.5749 19.2477 22.4699 19.0767C22.3649 18.9057 22.1399 18.8279 21.7649 18.6413Z" fill="#F6F6F6"/>
</svg>
